<?xml version="1.0" encoding="utf-8"?>
<!-- Generator: Adobe Illustrator 25.2.0, SVG Export Plug-In . SVG Version: 6.00 Build 0)  -->
<svg version="1.1" id="Layer_1" xmlns="http://www.w3.org/2000/svg" xmlns:xlink="http://www.w3.org/1999/xlink" x="0px" y="0px"
	 viewBox="0 0 1500 800" style="enable-background:new 0 0 1500 800;" xml:space="preserve">
<style type="text/css">
	.st0{fill:#2247B9;}
	.st1{fill:#8D3DF5;}
	.st2{fill:#F6C343;}
</style>
<g>
	<g>
		<g>
			<polygon class="st0" points="117,414.45 117,371.83 86.22,353.28 50.41,374.67 			"/>
		</g>
	</g>
	<g>
		<g>
			<polygon class="st0" points="129.99,337.09 129.99,379.71 157.1,396.05 192.89,374.67 			"/>
		</g>
	</g>
	<g>
		<g>
			<path class="st1" d="M192.9,374.67l-35.79,21.38l-35.46,21.18v40.48c2.69,0,5.37-0.72,7.76-2.16L193,417.23v-42.5v-0.12
				L192.9,374.67z"/>
		</g>
	</g>
	<g>
		<g>
			<path class="st1" d="M113.89,293.78l-63.55,38.29h0l-0.04,0.03v42.46v0.16l0.13-0.08l35.81-21.39h0l35.41-21.15v-40.48
				C118.97,291.63,116.28,292.35,113.89,293.78z"/>
		</g>
	</g>
	<g>
		<g>
			<path class="st2" d="M129.41,293.78c-2.39-1.44-5.07-2.16-7.76-2.16v40.48l35.44,21.17L193,332.1L129.41,293.78z"/>
		</g>
	</g>
	<g>
		<g>
			<path class="st2" d="M113.89,455.55c2.39,1.44,5.07,2.16,7.76,2.16v-40.48l-35.44-21.17l-35.9,21.17L113.89,455.55z"/>
		</g>
	</g>
</g>
<g>
	<g>
		<path class="st1" d="M272.59,407.8h-51.2v-22.61h7.2v-49.23h-7.4v-22.61h51.41v22.61h-7.47v49.23h7.47V407.8z M331.32,407.8
			h-48.89v-22.61h4.55l-20.71-26.89l24.04-22.34h-7.67v-22.61h46.52v22.61h-7.33l-19.29,17.93l24.11,31.31h4.69V407.8z"/>
		<path class="st1" d="M392.51,407.8h-53.85v-22.61h8.69v-49.23h-8.69v-22.61h53.85v22.61h-8.62v49.23h8.62V407.8z"/>
		<path class="st0" d="M521.1,408.63c-0.83,0-2.5,0-4.17-0.14c-17.66-0.83-22.81-4.59-26.98-10.43c-5.56-7.65-9.6-16.13-14.32-24.48
			c-2.09-3.75-4.03-4.59-8.48-4.59l-2.78-0.14v20.3c0,11.26,1.39,12.24,11.82,13.49v5.15h-42.56v-5.15
			c10.57-1.11,11.82-2.23,11.82-13.49V335.9c0-10.99-1.39-12.52-11.82-13.35v-5.15h40.33c12.38,0,19.47,1.39,25.17,5.28
			c5.56,3.75,9.32,9.87,9.32,18.5c0,12.38-8.21,18.91-17.38,22.53c2.09,4.17,7.51,13.21,11.68,19.61
			c4.87,7.65,7.93,11.4,10.57,14.46c3.2,3.62,4.73,4.73,8.76,6.12L521.1,408.63z M468.11,363.16c5.98,0,10.57-0.97,13.63-3.62
			c4.59-3.89,6.54-9.18,6.54-16.27c0-14.74-8.48-20.03-16.27-20.03c-3.75,0-5.56,0.56-6.4,1.39c-0.97,0.83-1.25,2.5-1.25,5.28v33.24
			H468.11z"/>
		<path class="st0" d="M600.65,384.16c-0.7,3.75-4.59,19.75-5.84,23.64h-72.18v-5.01c12.66-1.25,13.49-1.95,13.49-13.63v-53.12
			c0-11.82-1.67-12.66-11.13-13.49v-5.15h45.2c14.6,0,19.47-0.14,21.42-0.28c0.14,2.5,0.83,13.91,1.39,22.53l-5.42,0.7
			c-1.25-4.73-3.62-10.43-5.98-12.93c-2.5-2.78-4.31-3.62-11.4-3.62h-9.04c-5.28,0-5.84,0.28-5.84,5.01v29.07h13.63
			c7.79,0,9.18-2.09,11.26-11.96h5.42v31.01h-5.42c-2.23-10.29-3.34-11.96-11.4-11.96h-13.49v23.92c0,9.6,0.28,12.52,8.9,12.66h9.87
			c7.79,0,9.87-0.97,12.93-4.73c3.48-4.03,6.26-9.18,8.48-13.91L600.65,384.16z"/>
		<path class="st0" d="M660.86,340.35c-2.78-8.9-6.68-19.05-19.47-19.05c-8.07,0-13.35,5.7-13.35,13.49
			c0,7.65,5.15,12.24,17.38,18.36c14.88,7.37,24.34,14.6,24.34,28.37c0,16.41-13.63,28.37-33.52,28.37c-8.9,0-16.83-2.36-23.36-4.31
			c-0.83-3.2-3.2-17.66-4.17-24.2l5.42-1.25c2.78,8.76,10.57,23.92,24.2,23.92c8.48,0,13.63-5.28,13.63-14.19
			c0-8.07-5.01-12.79-16.69-19.05c-14.46-7.79-23.92-14.74-23.92-29.2c0-14.6,11.4-26.15,32.26-26.15c9.6,0,16.83,2.09,19.89,2.5
			c0.56,5.15,1.53,12.38,2.64,21.14L660.86,340.35z"/>
		<path class="st0" d="M757.1,384.16c-0.7,3.75-4.59,19.75-5.84,23.64h-72.18v-5.01c12.66-1.25,13.49-1.95,13.49-13.63v-53.12
			c0-11.82-1.67-12.66-11.13-13.49v-5.15h45.2c14.6,0,19.47-0.14,21.42-0.28c0.14,2.5,0.83,13.91,1.39,22.53l-5.42,0.7
			c-1.25-4.73-3.62-10.43-5.98-12.93c-2.5-2.78-4.31-3.62-11.4-3.62h-9.04c-5.28,0-5.84,0.28-5.84,5.01v29.07h13.63
			c7.79,0,9.18-2.09,11.26-11.96h5.42v31.01h-5.42c-2.23-10.29-3.34-11.96-11.4-11.96h-13.49v23.92c0,9.6,0.28,12.52,8.9,12.66h9.87
			c7.79,0,9.87-0.97,12.93-4.73c3.48-4.03,6.26-9.18,8.48-13.91L757.1,384.16z"/>
		<path class="st0" d="M809.39,407.8v-5.15c8.76-1.25,8.76-2.78,6.81-8.76c-1.39-4.17-3.62-10.43-5.7-15.99h-27.12
			c-1.53,4.31-3.48,9.6-4.87,13.91c-2.92,8.76,0.42,9.87,11.4,10.85v5.15h-34.35v-5.15c8.76-1.11,10.99-2.36,15.71-14.05l28.93-71.9
			l6.68-1.25c8.9,24.2,18.36,48.95,27.4,72.18c5.15,12.93,6.4,13.91,15.44,15.02v5.15H809.39z M797.15,341.33
			c-4.03,10.01-7.93,19.33-11.4,29.48h22.11L797.15,341.33z"/>
		<path class="st0" d="M938.73,408.63c-0.83,0-2.5,0-4.17-0.14c-17.66-0.83-22.81-4.59-26.98-10.43
			c-5.56-7.65-9.6-16.13-14.32-24.48c-2.09-3.75-4.03-4.59-8.48-4.59l-2.78-0.14v20.3c0,11.26,1.39,12.24,11.82,13.49v5.15h-42.56
			v-5.15c10.57-1.11,11.82-2.23,11.82-13.49V335.9c0-10.99-1.39-12.52-11.82-13.35v-5.15h40.33c12.38,0,19.47,1.39,25.17,5.28
			c5.56,3.75,9.32,9.87,9.32,18.5c0,12.38-8.21,18.91-17.38,22.53c2.09,4.17,7.51,13.21,11.68,19.61
			c4.87,7.65,7.93,11.4,10.57,14.46c3.2,3.62,4.73,4.73,8.76,6.12L938.73,408.63z M885.74,363.16c5.98,0,10.57-0.97,13.63-3.62
			c4.59-3.89,6.54-9.18,6.54-16.27c0-14.74-8.48-20.03-16.27-20.03c-3.75,0-5.56,0.56-6.4,1.39c-0.97,0.83-1.25,2.5-1.25,5.28v33.24
			H885.74z"/>
		<path class="st0" d="M1028.43,383.88c-1.95,6.95-5.56,17.52-7.79,22.39c-3.62,0.83-15.02,3.62-25.59,3.62
			c-37.41,0-52.85-24.06-52.85-46.17c0-28.79,21.97-48.26,55.35-48.26c12.1,0,22.81,2.92,26.28,3.34c0.7,6.54,1.67,16.83,2.64,22.95
			l-5.56,0.97c-2.92-10.85-7.09-15.99-14.46-18.91c-3.34-1.39-8.34-1.95-12.1-1.95c-20.16,0-30.32,16.83-30.32,38.66
			c0,25.45,13.07,42.69,32.12,42.69c11.68,0,19.47-6.12,26.98-21.42L1028.43,383.88z"/>
		<path class="st0" d="M1138.99,322.55c-10.85,1.11-11.82,1.95-11.82,13.49v53.26c0,11.54,1.11,12.38,11.82,13.35v5.15h-42.97v-5.15
			c10.99-1.39,11.82-1.81,11.82-13.35v-26.15h-37.55v26.15c0,11.54,1.25,12.24,11.68,13.35v5.15h-42.83v-5.15
			c10.29-1.11,11.82-1.81,11.82-13.35v-53.26c0-11.54-1.25-12.66-11.82-13.49v-5.15h42.83v5.15c-10.57,0.97-11.68,1.95-11.68,13.49
			v19.89h37.55v-19.89c0-11.54-1.39-12.38-11.82-13.49v-5.15h42.97V322.55z"/>
		<path class="st0" d="M1254.28,383.32c-1.11,5.98-5.01,20.72-6.26,24.48h-68.98v-5.15c12.24-0.83,13.35-1.81,13.35-13.49v-52.98
			c0-11.68-1.39-12.79-11.82-13.63v-5.15h43.39v5.15c-10.85,0.97-12.24,1.95-12.24,13.63v53.96c0,7.65,0.28,11.13,7.93,11.26
			c0.28,0.14,6.68,0.14,7.23,0.14c7.93,0,10.01-1.67,13.35-5.42c2.64-2.78,6.26-8.76,8.76-14.46L1254.28,383.32z"/>
		<path class="st0" d="M1306.29,407.8v-5.15c8.76-1.25,8.76-2.78,6.81-8.76c-1.39-4.17-3.62-10.43-5.7-15.99h-27.12
			c-1.53,4.31-3.48,9.6-4.87,13.91c-2.92,8.76,0.42,9.87,11.4,10.85v5.15h-34.35v-5.15c8.76-1.11,10.99-2.36,15.71-14.05l28.93-71.9
			l6.68-1.25c8.9,24.2,18.36,48.95,27.4,72.18c5.15,12.93,6.4,13.91,15.44,15.02v5.15H1306.29z M1294.05,341.33
			c-4.03,10.01-7.93,19.33-11.4,29.48h22.11L1294.05,341.33z"/>
		<path class="st0" d="M1401.97,358.01c14.6,2.64,24.89,9.6,24.89,22.81c0,8.62-5.42,16.69-13.35,21.14
			c-7.09,3.89-16.13,5.84-26.42,5.84h-38.94v-5.15c10.71-1.11,11.82-1.81,11.82-13.49v-52.98c0-11.68-1.81-12.93-11.68-13.63v-5.15
			h42.28c10.57,0,17.25,1.39,22.81,4.87c5.15,3.34,8.48,8.62,8.48,15.44C1421.86,349.25,1411.01,356.21,1401.97,358.01z
			 M1384.31,356.21c13.21,0,18.08-5.7,18.08-15.99c0-12.1-7.93-16.69-15.58-16.69c-3.34,0-5.42,0.42-6.54,1.11
			c-1.53,0.97-1.39,2.23-1.39,5.15v26.42H1384.31z M1378.89,388.89c0,10.01,4.59,13.07,12.1,12.93c7.65-0.14,15.16-6.81,15.16-19.75
			c0-13.49-6.81-19.89-22.39-19.89h-4.87V388.89z"/>
	</g>
</g>
</svg>
